<mxfile host="www.draw.io" modified="2019-10-18T13:21:24.733Z" agent="Mozilla/5.0 (X11; Linux i686; rv:69.0) Gecko/20100101 Firefox/69.0" etag="JPGnFO_iTFfDGmc5DnTx" version="12.1.3" type="github" pages="1">
  <diagram name="Page-1" id="2c0d36ab-eaac-3732-788b-9136903baeff">
    <mxGraphModel dx="1343" dy="689" grid="1" gridSize="10" guides="1" tooltips="1" connect="1" arrows="1" fold="1" page="1" pageScale="1.5" pageWidth="1169" pageHeight="827" background="#ffffff" math="0" shadow="0">
      <root>
        <mxCell id="0"/>
        <mxCell id="1" parent="0"/>
        <mxCell id="LjTAgO49cFPMTPEKsmXH-132" style="edgeStyle=orthogonalEdgeStyle;rounded=0;orthogonalLoop=1;jettySize=auto;html=1;entryX=0;entryY=0.5;entryDx=0;entryDy=0;" edge="1" parent="1" source="2" target="LjTAgO49cFPMTPEKsmXH-130">
          <mxGeometry relative="1" as="geometry"/>
        </mxCell>
        <mxCell id="2" value="Cубботин&#xa;Станислав&#xa;Андреевич&#xa;" style="rounded=1;fillColor=#23445D;gradientColor=none;strokeColor=none;fontColor=#FFFFFF;fontStyle=1;fontFamily=Tahoma;fontSize=14" parent="1" vertex="1">
          <mxGeometry x="627" y="163" width="203" height="100" as="geometry"/>
        </mxCell>
        <mxCell id="9" value="" style="edgeStyle=elbowEdgeStyle;elbow=vertical;strokeWidth=2;rounded=0;exitX=0.5;exitY=1;exitDx=0;exitDy=0;entryX=0.5;entryY=0;entryDx=0;entryDy=0;" parent="1" source="LjTAgO49cFPMTPEKsmXH-130" target="10" edge="1">
          <mxGeometry x="337" y="215.5" width="100" height="100" as="geometry">
            <mxPoint x="337" y="315.5" as="sourcePoint"/>
            <mxPoint x="1457" y="335.5" as="targetPoint"/>
            <Array as="points">
              <mxPoint x="1030" y="300"/>
            </Array>
          </mxGeometry>
        </mxCell>
        <mxCell id="10" value="Субботин&#xa;Константин&#xa;Станиславович&#xa;" style="rounded=1;fillColor=#23445D;gradientColor=none;strokeColor=none;fontColor=#FFFFFF;fontStyle=1;fontFamily=Tahoma;fontSize=14;arcSize=13;" parent="1" vertex="1">
          <mxGeometry x="947" y="335.5" width="190" height="80" as="geometry"/>
        </mxCell>
        <mxCell id="12" value="Субботин&#xa;Андрей&#xa;Станиславович&#xa;" style="rounded=1;fillColor=#23445D;gradientColor=none;strokeColor=none;fontColor=#FFFFFF;fontStyle=1;fontFamily=Tahoma;fontSize=14" parent="1" vertex="1">
          <mxGeometry x="39.999999999999886" y="337.5" width="190" height="80" as="geometry"/>
        </mxCell>
        <mxCell id="LjTAgO49cFPMTPEKsmXH-135" style="edgeStyle=orthogonalEdgeStyle;rounded=0;orthogonalLoop=1;jettySize=auto;html=1;exitX=1;exitY=0.5;exitDx=0;exitDy=0;entryX=0;entryY=0.5;entryDx=0;entryDy=0;" edge="1" parent="1" source="41" target="LjTAgO49cFPMTPEKsmXH-134">
          <mxGeometry relative="1" as="geometry"/>
        </mxCell>
        <mxCell id="41" value="Субботин&#xa;Андрей&#xa;Константинович" style="rounded=1;fillColor=#23445D;gradientColor=none;strokeColor=none;fontColor=#FFFFFF;fontStyle=1;fontFamily=Tahoma;fontSize=14" parent="1" vertex="1">
          <mxGeometry x="960" y="570" width="195" height="108" as="geometry"/>
        </mxCell>
        <mxCell id="59" value="" style="edgeStyle=elbowEdgeStyle;elbow=vertical;strokeWidth=2;rounded=0;exitX=0.5;exitY=1;exitDx=0;exitDy=0;" parent="1" source="LjTAgO49cFPMTPEKsmXH-130" target="12" edge="1">
          <mxGeometry x="347" y="225.5" width="100" height="100" as="geometry">
            <mxPoint x="1000" y="280" as="sourcePoint"/>
            <mxPoint x="1466.9999999999998" y="345.5" as="targetPoint"/>
          </mxGeometry>
        </mxCell>
        <mxCell id="101" value="" style="edgeStyle=elbowEdgeStyle;elbow=vertical;strokeWidth=2;rounded=0;exitX=1;exitY=0.5;exitDx=0;exitDy=0;entryX=0;entryY=0.5;entryDx=0;entryDy=0;" parent="1" source="12" target="LjTAgO49cFPMTPEKsmXH-141" edge="1">
          <mxGeometry x="-23" y="135.5" width="100" height="100" as="geometry">
            <mxPoint x="-23" y="235.5" as="sourcePoint"/>
            <mxPoint x="657" y="455.5" as="targetPoint"/>
          </mxGeometry>
        </mxCell>
        <mxCell id="103" value="" style="edgeStyle=elbowEdgeStyle;elbow=vertical;strokeWidth=2;rounded=0;exitX=0.5;exitY=1;exitDx=0;exitDy=0;" parent="1" source="LjTAgO49cFPMTPEKsmXH-124" target="41" edge="1">
          <mxGeometry x="-23" y="135.5" width="100" height="100" as="geometry">
            <mxPoint x="-23" y="235.5" as="sourcePoint"/>
            <mxPoint x="77" y="135.5" as="targetPoint"/>
          </mxGeometry>
        </mxCell>
        <mxCell id="LjTAgO49cFPMTPEKsmXH-126" style="edgeStyle=orthogonalEdgeStyle;rounded=0;orthogonalLoop=1;jettySize=auto;html=1;entryX=0;entryY=0.5;entryDx=0;entryDy=0;" edge="1" parent="1" source="10" target="LjTAgO49cFPMTPEKsmXH-124">
          <mxGeometry relative="1" as="geometry">
            <mxPoint x="1150" y="380" as="sourcePoint"/>
          </mxGeometry>
        </mxCell>
        <mxCell id="LjTAgO49cFPMTPEKsmXH-137" style="edgeStyle=orthogonalEdgeStyle;rounded=0;orthogonalLoop=1;jettySize=auto;html=1;entryX=0.5;entryY=0;entryDx=0;entryDy=0;" edge="1" parent="1" target="LjTAgO49cFPMTPEKsmXH-136">
          <mxGeometry relative="1" as="geometry">
            <mxPoint x="1290" y="413" as="sourcePoint"/>
          </mxGeometry>
        </mxCell>
        <mxCell id="LjTAgO49cFPMTPEKsmXH-124" value="Субботина&#xa;(...)&#xa;Ольга&#xa;Викторовна" style="rounded=1;fillColor=#ffe6cc;strokeColor=#d79b00;fontStyle=1;fontFamily=Tahoma;fontSize=14" vertex="1" parent="1">
          <mxGeometry x="1200" y="337.5" width="180" height="76" as="geometry"/>
        </mxCell>
        <mxCell id="LjTAgO49cFPMTPEKsmXH-130" value="Субботина&#xa;(Забродина)&#xa;Татьяна&#xa;Михайловна" style="rounded=1;fillColor=#ffe6cc;strokeColor=#d79b00;fontStyle=1;fontFamily=Tahoma;fontSize=14" vertex="1" parent="1">
          <mxGeometry x="927" y="163" width="180" height="100" as="geometry"/>
        </mxCell>
        <mxCell id="LjTAgO49cFPMTPEKsmXH-131" value="" style="endArrow=classic;html=1;entryX=0.5;entryY=0;entryDx=0;entryDy=0;exitX=0.5;exitY=1;exitDx=0;exitDy=0;" edge="1" parent="1" source="LjTAgO49cFPMTPEKsmXH-141" target="LjTAgO49cFPMTPEKsmXH-142">
          <mxGeometry width="50" height="50" relative="1" as="geometry">
            <mxPoint x="519" y="500" as="sourcePoint"/>
            <mxPoint x="569" y="450" as="targetPoint"/>
          </mxGeometry>
        </mxCell>
        <mxCell id="LjTAgO49cFPMTPEKsmXH-140" style="edgeStyle=orthogonalEdgeStyle;rounded=0;orthogonalLoop=1;jettySize=auto;html=1;exitX=0.5;exitY=1;exitDx=0;exitDy=0;entryX=0.5;entryY=0;entryDx=0;entryDy=0;" edge="1" parent="1" source="LjTAgO49cFPMTPEKsmXH-134" target="LjTAgO49cFPMTPEKsmXH-138">
          <mxGeometry relative="1" as="geometry"/>
        </mxCell>
        <mxCell id="LjTAgO49cFPMTPEKsmXH-134" value="Субботина&#xa;(...)&#xa;&#xa;Татьяна&#xa;..." style="rounded=1;fillColor=#ffe6cc;strokeColor=#d79b00;fontStyle=1;fontFamily=Tahoma;fontSize=14" vertex="1" parent="1">
          <mxGeometry x="1240" y="570" width="200" height="108" as="geometry"/>
        </mxCell>
        <mxCell id="LjTAgO49cFPMTPEKsmXH-136" value="Субботина&#xa;Татьяна&#xa;Константиновна&#xa;" style="rounded=1;fillColor=#ffe6cc;strokeColor=#d79b00;fontStyle=1;fontFamily=Tahoma;fontSize=14" vertex="1" parent="1">
          <mxGeometry x="1520" y="570" width="200" height="108" as="geometry"/>
        </mxCell>
        <mxCell id="LjTAgO49cFPMTPEKsmXH-138" value="Субботин&#xa;Илья&#xa;Андреевич" style="rounded=1;fillColor=#23445D;gradientColor=none;strokeColor=none;fontColor=#FFFFFF;fontStyle=1;fontFamily=Tahoma;fontSize=14" vertex="1" parent="1">
          <mxGeometry x="1243" y="761.5" width="195" height="108" as="geometry"/>
        </mxCell>
        <mxCell id="LjTAgO49cFPMTPEKsmXH-141" value="Субботина&#xa;(Сундукова)&#xa;Лидия&#xa;Алексеевна" style="rounded=1;fillColor=#f5f5f5;strokeColor=#666666;fontStyle=1;fontFamily=Tahoma;fontSize=14;fontColor=#333333;" vertex="1" parent="1">
          <mxGeometry x="294" y="340" width="180" height="76" as="geometry"/>
        </mxCell>
        <mxCell id="LjTAgO49cFPMTPEKsmXH-149" style="edgeStyle=orthogonalEdgeStyle;rounded=0;orthogonalLoop=1;jettySize=auto;html=1;exitX=1;exitY=0.5;exitDx=0;exitDy=0;entryX=0;entryY=0.5;entryDx=0;entryDy=0;" edge="1" parent="1" source="LjTAgO49cFPMTPEKsmXH-142" target="LjTAgO49cFPMTPEKsmXH-148">
          <mxGeometry relative="1" as="geometry"/>
        </mxCell>
        <mxCell id="LjTAgO49cFPMTPEKsmXH-142" value="Субботин&#xa;Алексей&#xa;Андреевич" style="rounded=1;fillColor=#23445D;gradientColor=none;strokeColor=none;fontColor=#FFFFFF;fontStyle=1;fontFamily=Tahoma;fontSize=14" vertex="1" parent="1">
          <mxGeometry x="289" y="570" width="190" height="108" as="geometry"/>
        </mxCell>
        <mxCell id="LjTAgO49cFPMTPEKsmXH-143" value="Слыжова&#xa;(Субботина)&#xa;Зоя&#xa;Андреевна&#xa;" style="rounded=1;fillColor=#ffe6cc;strokeColor=#d79b00;fontStyle=1;fontFamily=Tahoma;fontSize=14" vertex="1" parent="1">
          <mxGeometry x="40" y="570" width="200" height="108" as="geometry"/>
        </mxCell>
        <mxCell id="LjTAgO49cFPMTPEKsmXH-147" value="" style="edgeStyle=elbowEdgeStyle;elbow=vertical;strokeWidth=2;rounded=0;exitX=0.5;exitY=1;exitDx=0;exitDy=0;" edge="1" parent="1" source="LjTAgO49cFPMTPEKsmXH-141" target="LjTAgO49cFPMTPEKsmXH-143">
          <mxGeometry x="-800.5" y="164" width="100" height="100" as="geometry">
            <mxPoint x="512.8333333333335" y="441.5" as="sourcePoint"/>
            <mxPoint x="280" y="598.5" as="targetPoint"/>
          </mxGeometry>
        </mxCell>
        <mxCell id="LjTAgO49cFPMTPEKsmXH-151" style="edgeStyle=orthogonalEdgeStyle;rounded=0;orthogonalLoop=1;jettySize=auto;html=1;exitX=0.5;exitY=1;exitDx=0;exitDy=0;" edge="1" parent="1" source="LjTAgO49cFPMTPEKsmXH-148" target="LjTAgO49cFPMTPEKsmXH-150">
          <mxGeometry relative="1" as="geometry"/>
        </mxCell>
        <mxCell id="LjTAgO49cFPMTPEKsmXH-148" value="Субботина&#xa;(Питиримова)&#xa;Анна&#xa;Владимировна&#xa;" style="rounded=1;fillColor=#ffe6cc;strokeColor=#d79b00;fontStyle=1;fontFamily=Tahoma;fontSize=14" vertex="1" parent="1">
          <mxGeometry x="550" y="570" width="200" height="108" as="geometry"/>
        </mxCell>
        <mxCell id="LjTAgO49cFPMTPEKsmXH-150" value="Субботин&#xa;Николай&#xa;Алексеевич" style="rounded=1;fillColor=#23445D;gradientColor=none;strokeColor=none;fontColor=#FFFFFF;fontStyle=1;fontFamily=Tahoma;fontSize=14" vertex="1" parent="1">
          <mxGeometry x="550" y="720" width="200" height="108" as="geometry"/>
        </mxCell>
      </root>
    </mxGraphModel>
  </diagram>
</mxfile>
